<?xml version="1.0" encoding="UTF-8" standalone="no"?>
<svg
   xmlns:dc="http://purl.org/dc/elements/1.1/"
   xmlns:cc="http://creativecommons.org/ns#"
   xmlns:rdf="http://www.w3.org/1999/02/22-rdf-syntax-ns#"
   xmlns:svg="http://www.w3.org/2000/svg"
   xmlns="http://www.w3.org/2000/svg"
   xmlns:sodipodi="http://sodipodi.sourceforge.net/DTD/sodipodi-0.dtd"
   xmlns:inkscape="http://www.inkscape.org/namespaces/inkscape"
   width="500"
   height="500"
   viewBox="0 0 132.29166 132.29167"
   version="1.1"
   id="svg8"
   inkscape:version="1.0.1 (c497b03c, 2020-09-10)"
   sodipodi:docname="hash.svg">
  <defs
     id="defs2">
    <rect
       x="31.323731"
       y="43.946727"
       width="47.686874"
       height="23.375919"
       id="rect863" />
    <rect
       x="45.816801"
       y="54.69965"
       width="26.648547"
       height="7.480294"
       id="rect855" />
    <rect
       x="12.622996"
       y="31.323731"
       width="82.283234"
       height="18.233217"
       id="rect835" />
    <rect
       x="31.32373"
       y="43.946728"
       width="47.686874"
       height="23.375919"
       id="rect863-0" />
    <rect
       x="31.32373"
       y="43.946728"
       width="47.686874"
       height="23.375919"
       id="rect897" />
  </defs>
  <sodipodi:namedview
     id="base"
     pagecolor="#ffffff"
     bordercolor="#666666"
     borderopacity="1.0"
     inkscape:pageopacity="0.0"
     inkscape:pageshadow="2"
     inkscape:zoom="1.2979225"
     inkscape:cx="334.60357"
     inkscape:cy="265.78785"
     inkscape:document-units="mm"
     inkscape:current-layer="layer1"
     inkscape:document-rotation="0"
     showgrid="false"
     units="px"
     inkscape:window-width="1663"
     inkscape:window-height="914"
     inkscape:window-x="0"
     inkscape:window-y="25"
     inkscape:window-maximized="0" />
  <metadata
     id="metadata5">
    <rdf:RDF>
      <cc:Work
         rdf:about="">
        <dc:format>image/svg+xml</dc:format>
        <dc:type
           rdf:resource="http://purl.org/dc/dcmitype/StillImage" />
        <dc:title></dc:title>
      </cc:Work>
    </rdf:RDF>
  </metadata>
  <g
     inkscape:label="レイヤー 1"
     inkscape:groupmode="layer"
     id="layer1">
    <rect
       style="opacity:0.609;fill:none;stroke:#000000;stroke-width:2;stroke-miterlimit:4;stroke-dasharray:none"
       id="rect869"
       width="81.815712"
       height="19.635771"
       x="25.237978"
       y="19.635769" />
    <text
       xml:space="preserve"
       id="text833"
       style="font-style:normal;font-variant:normal;font-weight:normal;font-stretch:normal;font-size:10.58329999999999949px;line-height:1.25;font-family:'Hiragino Kaku Gothic Pro';-inkscape-font-specification:'Hiragino Kaku Gothic Pro, Normal';font-variant-ligatures:normal;font-variant-caps:normal;font-variant-numeric:normal;font-variant-east-asian:normal;white-space:pre;shape-inside:url(#rect835);"
       transform="translate(16.846362,-8.7595525)"><tspan
         x="12.623047"
         y="41.960435"><tspan
           style="font-style:normal;font-variant:normal;font-weight:normal;font-stretch:normal;font-size:10.5833px;font-family:'Hiragino Kaku Gothic Pro';-inkscape-font-specification:'Hiragino Kaku Gothic Pro, Normal';font-variant-ligatures:normal;font-variant-caps:normal;font-variant-numeric:normal;font-variant-east-asian:normal">吾輩</tspan><tspan
           style="font-style:normal;font-variant:normal;font-weight:normal;font-stretch:normal;font-size:10.5833px;font-family:'Hiragino Kaku Gothic Pro';-inkscape-font-specification:'Hiragino Kaku Gothic Pro, Normal';font-variant-ligatures:normal;font-variant-caps:normal;font-variant-numeric:normal;font-variant-east-asian:normal">は</tspan><tspan
           style="font-style:normal;font-variant:normal;font-weight:normal;font-stretch:normal;font-size:10.5833px;font-family:'Hiragino Kaku Gothic Pro';-inkscape-font-specification:'Hiragino Kaku Gothic Pro, Normal';font-variant-ligatures:normal;font-variant-caps:normal;font-variant-numeric:normal;font-variant-east-asian:normal">猫</tspan><tspan
           style="font-style:normal;font-variant:normal;font-weight:normal;font-stretch:normal;font-size:10.5833px;font-family:'Hiragino Kaku Gothic Pro';-inkscape-font-specification:'Hiragino Kaku Gothic Pro, Normal';font-variant-ligatures:normal;font-variant-caps:normal;font-variant-numeric:normal;font-variant-east-asian:normal">である</tspan></tspan></text>
    <text
       xml:space="preserve"
       style="font-style:normal;font-variant:normal;font-weight:normal;font-stretch:normal;font-size:5.64444px;line-height:1.25;font-family:'Hiragino Kaku Gothic Pro';-inkscape-font-specification:'Hiragino Kaku Gothic Pro, Normal';font-variant-ligatures:normal;font-variant-caps:normal;font-variant-numeric:normal;font-variant-east-asian:normal;stroke-width:0.264583"
       x="8.8736849"
       y="103.78908"
       id="text847"><tspan
         sodipodi:role="line"
         id="tspan849"
         x="8.8736849"
         y="103.78908">ee40011fcc1c5f8708811bfb4d30f7238</tspan><tspan
         sodipodi:role="line"
         id="tspan851"
         x="8.8736849"
         y="110.84463">4b762ad4dec1f9d0986400a1b38f9bb</tspan></text>
    <text
       xml:space="preserve"
       id="text853"
       style="line-height:1.25;font-family:'Hiragino Kaku Gothic Pro';font-size:7.05555999999999983px;-inkscape-font-specification:'Hiragino Kaku Gothic Pro, Normal';white-space:pre;shape-inside:url(#rect855);font-weight:normal;font-style:normal;font-stretch:normal;font-variant:normal;font-variant-ligatures:normal;font-variant-caps:normal;font-variant-numeric:normal;font-variant-east-asian:normal;"><tspan
         style="visibility:hidden"
         x="45.816406"
         y="69.270525"><tspan
           dx="0 7.0555601">原文</tspan></tspan></text>
    <rect
       style="opacity:1;fill:#ffffff;fill-opacity:1;stroke:none;stroke-width:2;stroke-miterlimit:4;stroke-dasharray:none;stroke-opacity:1"
       id="rect871"
       width="20"
       height="10"
       x="56.145832"
       y="13.899805" />
    <text
       xml:space="preserve"
       id="text861"
       style="font-style:normal;font-variant:normal;font-weight:normal;font-stretch:normal;font-size:7.05555999999999983px;line-height:1.25;font-family:'Hiragino Kaku Gothic Pro';-inkscape-font-specification:'Hiragino Kaku Gothic Pro, Normal';font-variant-ligatures:normal;font-variant-caps:normal;font-variant-numeric:normal;font-variant-east-asian:normal;white-space:pre;shape-inside:url(#rect863);opacity:1;fill:#000000;fill-opacity:1;stroke:none;stroke-opacity:1;"
       transform="translate(27.748416,-29.453658)"><tspan
         x="31.324219"
         y="51.038104"><tspan
           style="fill:#000000;fill-opacity:1;stroke:none;stroke-opacity:1">原文</tspan></tspan></text>
    <rect
       style="opacity:0.609;fill:none;stroke:#000000;stroke-width:2;stroke-miterlimit:4;stroke-dasharray:none"
       id="rect869-4"
       width="120.15221"
       height="20"
       x="6.0697303"
       y="94.438713" />
    <g
       id="g924"
       transform="translate(0,27.516678)">
      <rect
         style="opacity:1;fill:#ffffff;fill-opacity:1;stroke:none;stroke-width:2;stroke-miterlimit:4;stroke-dasharray:none;stroke-opacity:1"
         id="rect917"
         width="40"
         x="46.145832"
         y="61.145832"
         inkscape:transform-center-x="-16.363144"
         inkscape:transform-center-y="14.49307"
         height="10" />
      <text
         xml:space="preserve"
         id="text861-0"
         style="font-style:normal;font-variant:normal;font-weight:normal;font-stretch:normal;font-size:7.05555999999999983px;line-height:1.25;font-family:'Hiragino Kaku Gothic Pro';-inkscape-font-specification:'Hiragino Kaku Gothic Pro, Normal';font-variant-ligatures:normal;font-variant-caps:normal;font-variant-numeric:normal;font-variant-east-asian:normal;white-space:pre;shape-inside:url(#rect863-0);opacity:1;fill:#000000;fill-opacity:1;stroke:none;stroke-opacity:1;"
         transform="translate(17.275484,17.788843)"><tspan
           x="31.324219"
           y="51.038104"><tspan>ハッシュ</tspan><tspan>化</tspan></tspan></text>
    </g>
    <path
       d="m 53.933585,43.217943 c -0.15109,-0.120243 -0.27713,-0.165047 -0.43315,-0.159031 l -0.147,0.0069 -0.37861,0.359668 c -5.30863,5.046242 -7.98915,10.475055 -8.06166,16.317766 -0.009,0.780944 0.07,2.015675 0.17705,2.813804 0.51,3.757309 2.03594,7.45634 4.60565,11.154603 0.58712,0.845833 1.69519,2.233164 2.42181,3.026503 0.17979,0.196816 0.32571,0.360552 0.32571,0.360552 9e-5,0.0037 -0.17202,0.121548 -0.383,0.264363 -3.09591,2.123737 -4.29693,2.957024 -4.3512,3.02661 -0.10834,0.142995 -0.0895,0.432598 0.0446,0.652819 0.12026,0.191473 0.26561,0.304294 0.50276,0.381746 0.45432,0.150574 12.86026,3.385511 12.94426,3.375908 0.13762,-0.01548 0.23009,-0.07506 0.28271,-0.179038 0.0721,-0.150487 2.38899,-13.73939 2.37443,-13.937481 -0.0317,-0.41391 -0.4149,-0.773525 -0.78871,-0.737461 -0.084,0.0096 -0.33308,0.178397 -4.3393,2.93447 -0.32039,0.219905 -0.59064,0.397147 -0.60159,0.39373 -0.0365,-0.01136 -0.63225,-0.617431 -1.00312,-1.022083 -0.48256,-0.527695 -1.38475,-1.65936 -1.86171,-2.337527 -0.58278,-0.82945 -1.17574,-1.801132 -1.62907,-2.667408 -0.18947,-0.367077 -0.54655,-1.094446 -0.60132,-1.229857 -0.0141,-0.0326 -0.0988,-0.231776 -0.19127,-0.444692 -1.21682,-2.804275 -1.85807,-5.982208 -1.83192,-9.063622 0.0343,-3.952758 1.01015,-7.862859 3.00527,-12.031297 0.12302,-0.253061 0.22955,-0.513128 0.2394,-0.572084 0.0226,-0.132003 -0.0618,-0.402568 -0.15923,-0.528697 -0.04,-0.04811 -0.11153,-0.119221 -0.16189,-0.159304 z"
       id="path928"
       style="fill:#000000;stroke:none;stroke-width:0.00261746" />
    <path
       d="m 75.562507,84.342614 c 0.11533,0.154868 0.22573,0.2304 0.37811,0.264464 l 0.14388,0.0309 0.45796,-0.250945 c 6.42214,-3.521691 10.40125,-8.085005 11.96479,-13.715093 0.20831,-0.752701 0.44754,-1.966608 0.54806,-2.765587 0.46733,-3.762854 -0.0624,-7.729047 -1.60147,-11.961291 -0.35142,-0.967808 -1.06807,-2.592284 -1.56777,-3.544996 -0.12351,-0.236233 -0.22273,-0.431829 -0.22273,-0.431829 8.6e-4,-0.0036 0.19738,-0.07354 0.43785,-0.157685 3.53591,-1.261853 4.910032,-1.76047 4.980282,-1.813872 0.14129,-0.110554 0.1971,-0.395352 0.12375,-0.642534 -0.0673,-0.215852 -0.17901,-0.362077 -0.38848,-0.497574 -0.40074,-0.261699 -11.567702,-6.560211 -11.651362,-6.5724 -0.13701,-0.02021 -0.24164,0.01375 -0.31909,0.100829 -0.10817,0.127059 -5.8215,12.67234 -5.85806,12.867572 -0.0752,0.408262 0.2034,0.853882 0.57401,0.914562 0.0837,0.01219 0.36762,-0.08733 4.94522,-1.727837 0.36596,-0.130707 0.67254,-0.232982 0.68225,-0.226879 0.0324,0.0203 0.45343,0.758529 0.70854,1.244534 0.33165,0.633512 0.91461,1.95819 1.20238,2.735743 0.35141,0.950856 0.67631,2.041824 0.89315,2.995198 0.0893,0.403313 0.24865,1.197792 0.26699,1.342704 0.005,0.03512 0.0363,0.249331 0.0713,0.47881 0.4596,3.022146 0.26725,6.258419 -0.54566,9.230787 -1.04351,3.812684 -2.98639,7.343461 -5.98071,10.863462 -0.18362,0.21321 -0.35309,0.437408 -0.37768,0.491888 -0.0556,0.121841 -0.0431,0.404992 0.0188,0.551834 0.0264,0.05674 0.0773,0.143769 0.1158,0.195393 z"
       id="path928-4"
       style="fill:#000000;stroke:none;stroke-width:0.00261746" />
    <text
       xml:space="preserve"
       style="font-style:normal;font-variant:normal;font-weight:normal;font-stretch:normal;font-size:7.05556px;line-height:1.25;font-family:'Hiragino Kaku Gothic Pro';-inkscape-font-specification:'Hiragino Kaku Gothic Pro, Normal';font-variant-ligatures:normal;font-variant-caps:normal;font-variant-numeric:normal;font-variant-east-asian:normal;stroke-width:0.264583"
       x="4.3992815"
       y="76.412758"
       id="text957"><tspan
         sodipodi:role="line"
         id="tspan959"
         x="4.3992815"
         y="76.412758">ハッシュ関数</tspan></text>
    <g
       transform="matrix(0.00232484,0,0,-0.00232484,71.295826,77.748388)"
       fill="#000000"
       stroke="none"
       id="g967"
       style="fill:#d81b00;fill-opacity:1">
      <path
         d="m 6180,11089 c -921,-38 -1841,-368 -2584,-926 -356,-267 -701,-614 -961,-963 -907,-1222 -1165,-2801 -694,-4250 127,-389 329,-804 561,-1149 987,-1473 2722,-2269 4468,-2050 966,121 1831,515 2559,1165 1571,1403 2010,3690 1070,5574 -418,836 -1056,1515 -1869,1985 -608,352 -1377,582 -2040,610 -283,12 -330,12 -510,4 z m 555,-719 c 1327,-114 2497,-871 3146,-2035 484,-870 622,-1920 378,-2895 C 10084,4738 9729,4110 9220,3600 8891,3270 8533,3015 8125,2819 7580,2558 7011,2430 6400,2430 c -641,0 -1227,139 -1795,425 -760,383 -1377,1001 -1760,1763 -588,1171 -560,2582 74,3717 648,1160 1815,1918 3131,2034 139,12 546,12 685,1 z"
         id="path963"
         style="fill:#d81b00;fill-opacity:1" />
      <path
         d="m 4609,8719 c -26,-4 -57,-13 -70,-19 -40,-21 -409,-392 -432,-435 -29,-53 -30,-173 -3,-225 10,-19 378,-395 817,-835 l 799,-800 -796,-795 c -462,-462 -804,-812 -817,-835 -33,-62 -31,-175 5,-235 39,-66 394,-414 442,-434 49,-20 152,-21 202,0 29,11 255,231 842,817 l 802,802 803,-802 c 586,-586 812,-806 841,-817 50,-21 153,-20 202,0 48,20 403,368 442,434 36,60 38,173 5,235 -13,23 -355,373 -817,835 l -796,795 799,800 c 439,440 807,816 817,835 27,52 26,172 -3,225 -32,59 -399,420 -448,441 -51,21 -148,21 -200,-1 -30,-12 -249,-225 -842,-818 l -803,-802 -802,802 c -464,464 -816,807 -833,814 -47,19 -106,25 -156,18 z"
         id="path965"
         style="fill:#d81b00;fill-opacity:1" />
    </g>
    <text
       xml:space="preserve"
       style="font-style:normal;font-variant:normal;font-weight:normal;font-stretch:normal;font-size:7.05556px;line-height:1.25;font-family:'Hiragino Kaku Gothic Pro';-inkscape-font-specification:'Hiragino Kaku Gothic Pro, Normal';font-variant-ligatures:normal;font-variant-caps:normal;font-variant-numeric:normal;font-variant-east-asian:normal;stroke-width:0.264583"
       x="97.029381"
       y="53.622799"
       id="text957-8"><tspan
         sodipodi:role="line"
         id="tspan996"
         x="97.029381"
         y="53.622799">戻らない</tspan></text>
  </g>
</svg>
